<svg xmlns="http://www.w3.org/2000/svg" viewBox="0 0 1200 900" width="1200" height="900" role="img">
<defs><linearGradient id="g" x1="0" y1="0" x2="1" y2="1"><stop offset="0" stop-color="#F6EDD0"/><stop offset="1" stop-color="#FBF9F5"/></linearGradient>
<radialGradient id="r" cx="0.5" cy="0.55" r="0.5"><stop offset="0" stop-color="#FFFFFF" stop-opacity="0.9"/><stop offset="1" stop-color="#FFFFFF" stop-opacity="0"/></radialGradient></defs>
<rect width="1200" height="900" fill="url(#g)"/><circle cx="600" cy="520" r="330" fill="url(#r)"/>
<circle cx="600" cy="520" r="300" fill="none" stroke="#E7E1D6" stroke-width="2"/>
<circle cx="600" cy="520" r="270" fill="none" stroke="#EAD9A0" stroke-width="1.5" stroke-dasharray="4 10"/>
<g fill="none" stroke="#B8922E" stroke-width="6"><path d="M600 640 C540 560 540 470 600 400 C660 470 660 560 600 640Z"/><path d="M600 640 C510 600 460 520 470 440 C540 470 590 540 600 640Z"/><path d="M600 640 C690 600 740 520 730 440 C660 470 610 540 600 640Z"/><path d="M600 640 C470 640 400 590 380 520 C470 520 560 570 600 640Z"/><path d="M600 640 C730 640 800 590 820 520 C730 520 640 570 600 640Z"/></g>
<path d="M300 780 L900 780" stroke="#B8922E" stroke-width="2"/><circle cx="600" cy="780" r="7" fill="#D4AF37"/>
</svg>